# Blender v2.82 (sub 7) OBJ File: 'trackPieces.blend'
# www.blender.org
mtllib tp2.mtl
o Plane.010_Plane.007
v -0.014661 1.113011 0.996602
v 0.985339 1.113011 0.996602
v -0.014661 0.015347 -0.003398
v 0.985339 0.015347 -0.003398
v 0.985339 1.313012 0.996602
v -0.014661 1.313012 0.996602
v -0.014661 0.215347 -0.003398
v 0.085339 1.113011 0.996602
v 0.885339 1.113011 0.996602
v 0.885339 0.015347 -0.003398
v 0.085339 0.015347 -0.003398
v 0.985339 0.215347 -0.003398
v 0.965339 1.313012 0.996602
v 0.885339 1.233011 0.996602
v 0.005339 0.215347 -0.003398
v 0.085339 0.135347 -0.003398
v 0.085339 1.233011 0.996602
v 0.005339 1.313012 0.996602
v 0.885339 0.135347 -0.003398
v 0.965339 0.215347 -0.003398
vt 0.000077 0.734393
vt 0.586059 0.734393
vt 0.586059 0.804711
vt 0.000077 0.804711
vt 0.586059 0.265607
vt 0.000077 0.265607
vt 0.000077 0.195289
vt 0.586059 0.195289
vt 0.000077 0.882727
vt 0.000077 0.871007
vt 0.586059 0.871007
vt 0.586059 0.882724
vt 0.000077 0.000077
vt 0.586060 0.000079
vt 0.586059 0.117275
vt 0.000077 0.117273
vt 0.586060 0.999921
vt 0.000077 0.999923
vt 0.000077 0.128993
vt 0.586059 0.128993
vn 1.0000 0.0000 0.0000
vn -1.0000 0.0000 0.0000
vn 0.0000 0.6735 -0.7392
vn 0.5586 0.5586 -0.6131
vn -0.5586 0.5586 -0.6131
usemtl mat.003
s off
f 8/1/1 11/2/1 16/3/1 17/4/1
f 10/5/2 9/6/2 14/7/2 19/8/2
f 8/1/3 9/6/3 10/5/3 11/2/3
f 6/9/3 18/10/3 15/11/3 7/12/3
f 2/13/1 4/14/1 12/15/1 5/16/1
f 3/17/2 1/18/2 6/9/2 7/12/2
f 17/4/4 16/3/4 15/11/4 18/10/4
f 13/19/5 20/20/5 19/8/5 14/7/5
f 13/19/3 5/16/3 12/15/3 20/20/3
