# Blender v2.82 (sub 7) OBJ File: 'trackPieces.blend'
# www.blender.org
mtllib trackpiece5.mtl
o Plane.001_Plane.003
v -1.608051 0.000000 -1.081750
v -0.608051 0.000000 -1.081750
v -0.608051 0.200000 -1.081750
v -1.608051 0.200000 -1.081750
v -1.508051 0.000000 -1.081750
v -0.708051 0.000000 -1.081750
v -0.628051 0.200000 -1.081750
v -0.708051 0.120000 -1.081750
v -1.508051 0.120000 -1.081750
v -1.588051 0.200000 -1.081750
v -0.612866 0.000000 -1.179767
v -0.612866 0.200000 -1.179767
v -1.508533 0.000000 -1.091552
v -0.712385 0.000000 -1.169966
v -0.632770 0.200000 -1.177807
v -0.712385 0.120000 -1.169966
v -1.508533 0.120000 -1.091552
v -1.588147 0.200000 -1.083710
v -0.627266 0.000000 -1.276840
v -0.627266 0.200000 -1.276840
v -1.509973 0.000000 -1.101259
v -0.725344 0.000000 -1.257331
v -0.646882 0.200000 -1.272938
v -0.725344 0.120000 -1.257331
v -1.509973 0.120000 -1.101259
v -1.588435 0.200000 -1.085652
v -0.651111 0.000000 -1.372035
v -0.651111 0.200000 -1.372035
v -1.512357 0.000000 -1.110778
v -0.746805 0.000000 -1.343006
v -0.670250 0.200000 -1.366229
v -0.746805 0.120000 -1.343006
v -1.512357 0.120000 -1.110778
v -1.588912 0.200000 -1.087556
v -0.684172 0.000000 -1.464433
v -0.684172 0.200000 -1.464433
v -1.515663 0.000000 -1.120018
v -0.776560 0.000000 -1.426165
v -0.702649 0.200000 -1.456780
v -0.776560 0.120000 -1.426165
v -1.515663 0.120000 -1.120018
v -1.589574 0.200000 -1.089404
v -0.726130 0.000000 -1.553147
v -0.726130 0.200000 -1.553147
v -1.519859 0.000000 -1.128890
v -0.814322 0.000000 -1.506007
v -0.743768 0.200000 -1.543719
v -0.814322 0.120000 -1.506007
v -1.519859 0.120000 -1.128890
v -1.590413 0.200000 -1.091178
v -0.776581 0.000000 -1.637320
v -0.776581 0.200000 -1.637320
v -1.524904 0.000000 -1.137307
v -0.859728 0.000000 -1.581763
v -0.793211 0.200000 -1.626209
v -0.859728 0.120000 -1.581763
v -1.524904 0.120000 -1.137307
v -1.591422 0.200000 -1.092861
v -0.835041 0.000000 -1.716143
v -0.835041 0.200000 -1.716143
v -1.530750 0.000000 -1.145189
v -0.912342 0.000000 -1.652704
v -0.850501 0.200000 -1.703455
v -0.912342 0.120000 -1.652704
v -1.530750 0.120000 -1.145189
v -1.592591 0.200000 -1.094438
v -0.900944 0.000000 -1.788857
v -0.900944 0.200000 -1.788857
v -1.537340 0.000000 -1.152461
v -0.971655 0.000000 -1.718146
v -0.915086 0.200000 -1.774715
v -0.971655 0.120000 -1.718146
v -1.537340 0.120000 -1.152461
v -1.593909 0.200000 -1.095892
v -0.973658 0.000000 -1.854760
v -0.973658 0.200000 -1.854760
v -1.544612 0.000000 -1.159051
v -1.037097 0.000000 -1.777459
v -0.986346 0.200000 -1.839300
v -1.037097 0.120000 -1.777459
v -1.544612 0.120000 -1.159051
v -1.595363 0.200000 -1.097210
v -1.052481 0.000000 -1.913220
v -1.052481 0.200000 -1.913220
v -1.552494 0.000000 -1.164897
v -1.108038 0.000000 -1.830073
v -1.063592 0.200000 -1.896590
v -1.108038 0.120000 -1.830073
v -1.552494 0.120000 -1.164897
v -1.596940 0.200000 -1.098379
v -1.136654 0.000000 -1.963671
v -1.136654 0.200000 -1.963671
v -1.560911 0.000000 -1.169942
v -1.183794 0.000000 -1.875479
v -1.146082 0.200000 -1.946033
v -1.183794 0.120000 -1.875479
v -1.560911 0.120000 -1.169942
v -1.598623 0.200000 -1.099388
v -1.225368 0.000000 -2.005630
v -1.225368 0.200000 -2.005630
v -1.569783 0.000000 -1.174138
v -1.263636 0.000000 -1.913242
v -1.233021 0.200000 -1.987152
v -1.263636 0.120000 -1.913242
v -1.569783 0.120000 -1.174138
v -1.600397 0.200000 -1.100228
v -1.317766 0.000000 -2.038690
v -1.317766 0.200000 -2.038690
v -1.579023 0.000000 -1.177444
v -1.346795 0.000000 -1.942996
v -1.323572 0.200000 -2.019552
v -1.346795 0.120000 -1.942996
v -1.579023 0.120000 -1.177444
v -1.602245 0.200000 -1.100889
v -1.412961 0.000000 -2.062535
v -1.412961 0.200000 -2.062535
v -1.588542 0.000000 -1.179829
v -1.432470 0.000000 -1.964457
v -1.416863 0.200000 -2.042920
v -1.432470 0.120000 -1.964457
v -1.588542 0.120000 -1.179829
v -1.604149 0.200000 -1.101366
v -1.510034 0.000000 -2.076935
v -1.510034 0.200000 -2.076935
v -1.598249 0.000000 -1.181268
v -1.519836 0.000000 -1.977416
v -1.511994 0.200000 -2.057031
v -1.519836 0.120000 -1.977416
v -1.598249 0.120000 -1.181268
v -1.606091 0.200000 -1.101654
v -1.608051 0.000000 -2.081750
v -1.608051 0.200000 -2.081750
v -1.608051 0.000000 -1.181750
v -1.608051 0.000000 -1.981750
v -1.608051 0.200000 -2.061750
v -1.608051 0.120000 -1.981750
v -1.608051 0.120000 -1.181750
v -1.608051 0.200000 -1.101750
vt 0.574575 0.200482
vt 0.603815 0.706133
vt 0.567167 0.704169
vt 0.568722 0.198639
vt 0.532371 0.698844
vt 0.562863 0.196268
vt 0.498958 0.690212
vt 0.557062 0.193427
vt 0.466744 0.678359
vt 0.551336 0.190147
vt 0.435645 0.663348
vt 0.545700 0.186452
vt 0.405640 0.645218
vt 0.540168 0.182366
vt 0.376743 0.624003
vt 0.534756 0.177906
vt 0.348994 0.599732
vt 0.529478 0.173091
vt 0.322446 0.572435
vt 0.524349 0.167937
vt 0.297155 0.542136
vt 0.519385 0.162459
vt 0.273175 0.508848
vt 0.514601 0.156670
vt 0.250553 0.472554
vt 0.510015 0.150586
vt 0.229323 0.433197
vt 0.505644 0.144219
vt 0.209496 0.390646
vt 0.501507 0.137583
vt 0.191035 0.344644
vt 0.497625 0.130695
vt 0.173677 0.294283
vt 0.494041 0.123601
vt 0.580046 0.999922
vt 0.538213 0.988607
vt 0.553937 0.863753
vt 0.595411 0.872043
vt 0.495951 0.975935
vt 0.514110 0.852780
vt 0.453800 0.960821
vt 0.475354 0.839243
vt 0.411967 0.942641
vt 0.437550 0.822902
vt 0.370664 0.921007
vt 0.400678 0.803508
vt 0.330112 0.895682
vt 0.364789 0.780888
vt 0.290533 0.866560
vt 0.329970 0.754950
vt 0.252139 0.833638
vt 0.296321 0.725666
vt 0.215120 0.797005
vt 0.263938 0.693062
vt 0.179631 0.756826
vt 0.232905 0.657207
vt 0.145782 0.713335
vt 0.203279 0.618196
vt 0.113624 0.666812
vt 0.175079 0.576136
vt 0.083136 0.617576
vt 0.148272 0.531124
vt 0.054210 0.565970
vt 0.122760 0.483210
vt 0.026639 0.512366
vt 0.098365 0.432254
vt 0.000078 0.457242
vt 0.075035 0.377582
vt 0.603815 0.016403
vt 0.603117 0.108972
vt 0.597815 0.107003
vt 0.602734 0.016506
vt 0.592754 0.104812
vt 0.601665 0.016476
vt 0.587877 0.102382
vt 0.600617 0.016319
vt 0.583165 0.099710
vt 0.599595 0.016038
vt 0.578606 0.096790
vt 0.598601 0.015636
vt 0.574188 0.093621
vt 0.597640 0.015119
vt 0.569899 0.090197
vt 0.596714 0.014488
vt 0.565730 0.086514
vt 0.595829 0.013747
vt 0.561674 0.082564
vt 0.594986 0.012900
vt 0.557723 0.078338
vt 0.594192 0.011949
vt 0.553870 0.073828
vt 0.593449 0.010898
vt 0.550107 0.069020
vt 0.592761 0.009751
vt 0.546428 0.063899
vt 0.592132 0.008510
vt 0.542823 0.058445
vt 0.591568 0.007180
vt 0.539285 0.052636
vt 0.591071 0.005763
vt 0.535811 0.046454
vt 0.590647 0.004263
vt 0.599860 0.785181
vt 0.596086 0.859219
vt 0.555235 0.851339
vt 0.561647 0.779468
vt 0.515774 0.840666
vt 0.524463 0.771034
vt 0.477388 0.827432
vt 0.488403 0.759806
vt 0.439989 0.811382
vt 0.453439 0.745633
vt 0.403553 0.792286
vt 0.419542 0.728403
vt 0.368119 0.769988
vt 0.386717 0.708042
vt 0.333761 0.744400
vt 0.355001 0.684513
vt 0.300571 0.715498
vt 0.324451 0.657810
vt 0.268642 0.683305
vt 0.295131 0.627954
vt 0.238050 0.647884
vt 0.267103 0.594978
vt 0.208850 0.609317
vt 0.240415 0.558920
vt 0.181062 0.567698
vt 0.215099 0.519811
vt 0.154656 0.523106
vt 0.191161 0.477657
vt 0.129550 0.475564
vt 0.168590 0.432445
vt 0.105614 0.424930
vt 0.147378 0.384218
vt 0.082842 0.370754
vt 0.127555 0.333636
vt 0.601430 0.000078
vn 0.0000 1.0000 0.0000
vn 0.9988 0.0000 -0.0491
vn 0.9892 0.0000 -0.1467
vn 0.9700 0.0000 -0.2430
vn 0.9415 0.0000 -0.3369
vn 0.9040 0.0000 -0.4276
vn 0.8577 0.0000 -0.5141
vn 0.8032 0.0000 -0.5957
vn 0.7410 0.0000 -0.6716
vn 0.6716 0.0000 -0.7410
vn 0.5957 0.0000 -0.8032
vn 0.5141 0.0000 -0.8577
vn 0.4276 0.0000 -0.9040
vn 0.3369 0.0000 -0.9415
vn 0.2430 0.0000 -0.9700
vn 0.1467 0.0000 -0.9892
vn 0.0491 0.0000 -0.9988
vn 0.7067 0.7067 -0.0347
vn 0.6999 0.7067 -0.1038
vn 0.6863 0.7067 -0.1719
vn 0.6662 0.7067 -0.2384
vn 0.6396 0.7067 -0.3025
vn 0.6069 0.7067 -0.3637
vn 0.5683 0.7067 -0.4215
vn 0.5242 0.7067 -0.4752
vn 0.4751 0.7067 -0.5242
vn 0.4215 0.7067 -0.5683
vn 0.3637 0.7067 -0.6069
vn 0.3025 0.7067 -0.6396
vn 0.2384 0.7067 -0.6662
vn 0.1719 0.7067 -0.6863
vn 0.1038 0.7067 -0.6999
vn 0.0347 0.7067 -0.7067
vn -0.7067 0.7067 0.0347
vn -0.6999 0.7067 0.1038
vn -0.6863 0.7067 0.1719
vn -0.6662 0.7067 0.2384
vn -0.6396 0.7067 0.3025
vn -0.6069 0.7067 0.3637
vn -0.5683 0.7067 0.4215
vn -0.5242 0.7067 0.4751
vn -0.4751 0.7067 0.5242
vn -0.4215 0.7067 0.5683
vn -0.3637 0.7067 0.6069
vn -0.3025 0.7067 0.6396
vn -0.2384 0.7067 0.6662
vn -0.1719 0.7067 0.6863
vn -0.1038 0.7067 0.6999
vn -0.0347 0.7067 0.7067
vn -0.9988 0.0000 0.0491
vn -0.9892 0.0000 0.1467
vn -0.9700 0.0000 0.2430
vn -0.9415 0.0000 0.3369
vn -0.9040 0.0000 0.4276
vn -0.8577 0.0000 0.5141
vn -0.8032 0.0000 0.5957
vn -0.7410 0.0000 0.6716
vn -0.6716 0.0000 0.7410
vn -0.5957 0.0000 0.8032
vn -0.5141 0.0000 0.8577
vn -0.4276 0.0000 0.9040
vn -0.3369 0.0000 0.9415
vn -0.2430 0.0000 0.9700
vn -0.1467 0.0000 0.9892
vn -0.0491 0.0000 0.9988
vn 0.7409 0.0000 -0.6716
usemtl corner1
s off
f 5/1/1 6/2/1 14/3/1 13/4/1
f 13/4/1 14/3/1 22/5/1 21/6/1
f 21/6/1 22/5/1 30/7/1 29/8/1
f 29/8/1 30/7/1 38/9/1 37/10/1
f 37/10/1 38/9/1 46/11/1 45/12/1
f 45/12/1 46/11/1 54/13/1 53/14/1
f 53/14/1 54/13/1 62/15/1 61/16/1
f 61/16/1 62/15/1 70/17/1 69/18/1
f 69/18/1 70/17/1 78/19/1 77/20/1
f 77/20/1 78/19/1 86/21/1 85/22/1
f 85/22/1 86/21/1 94/23/1 93/24/1
f 93/24/1 94/23/1 102/25/1 101/26/1
f 101/26/1 102/25/1 110/27/1 109/28/1
f 109/28/1 110/27/1 118/29/1 117/30/1
f 117/30/1 118/29/1 126/31/1 125/32/1
f 125/32/1 126/31/1 134/33/1 133/34/1
f 2/35/2 11/36/2 12/37/2 3/38/2
f 11/36/3 19/39/3 20/40/3 12/37/3
f 19/39/4 27/41/4 28/42/4 20/40/4
f 27/41/5 35/43/5 36/44/5 28/42/5
f 35/43/6 43/45/6 44/46/6 36/44/6
f 43/45/7 51/47/7 52/48/7 44/46/7
f 51/47/8 59/49/8 60/50/8 52/48/8
f 59/49/9 67/51/9 68/52/9 60/50/9
f 67/51/10 75/53/10 76/54/10 68/52/10
f 75/53/11 83/55/11 84/56/11 76/54/11
f 83/55/12 91/57/12 92/58/12 84/56/12
f 91/57/13 99/59/13 100/60/13 92/58/13
f 99/59/14 107/61/14 108/62/14 100/60/14
f 107/61/15 115/63/15 116/64/15 108/62/15
f 115/63/16 123/65/16 124/66/16 116/64/16
f 123/65/17 131/67/17 132/68/17 124/66/17
f 10/69/18 9/70/18 17/71/18 18/72/18
f 18/72/19 17/71/19 25/73/19 26/74/19
f 26/74/20 25/73/20 33/75/20 34/76/20
f 34/76/21 33/75/21 41/77/21 42/78/21
f 42/78/22 41/77/22 49/79/22 50/80/22
f 50/80/23 49/79/23 57/81/23 58/82/23
f 58/82/24 57/81/24 65/83/24 66/84/24
f 66/84/25 65/83/25 73/85/25 74/86/25
f 74/86/26 73/85/26 81/87/26 82/88/26
f 82/88/27 81/87/27 89/89/27 90/90/27
f 90/90/28 89/89/28 97/91/28 98/92/28
f 98/92/29 97/91/29 105/93/29 106/94/29
f 106/94/30 105/93/30 113/95/30 114/96/30
f 114/96/31 113/95/31 121/97/31 122/98/31
f 122/98/32 121/97/32 129/99/32 130/100/32
f 130/100/33 129/99/33 137/101/33 138/102/33
f 8/103/34 7/104/34 15/105/34 16/106/34
f 16/106/35 15/105/35 23/107/35 24/108/35
f 24/108/36 23/107/36 31/109/36 32/110/36
f 32/110/37 31/109/37 39/111/37 40/112/37
f 40/112/38 39/111/38 47/113/38 48/114/38
f 48/114/39 47/113/39 55/115/39 56/116/39
f 56/116/40 55/115/40 63/117/40 64/118/40
f 64/118/41 63/117/41 71/119/41 72/120/41
f 72/120/42 71/119/42 79/121/42 80/122/42
f 80/122/43 79/121/43 87/123/43 88/124/43
f 88/124/44 87/123/44 95/125/44 96/126/44
f 96/126/45 95/125/45 103/127/45 104/128/45
f 104/128/46 103/127/46 111/129/46 112/130/46
f 112/130/47 111/129/47 119/131/47 120/132/47
f 120/132/48 119/131/48 127/133/48 128/134/48
f 128/134/49 127/133/49 135/135/49 136/136/49
f 7/104/1 3/38/1 12/37/1 15/105/1
f 15/105/1 12/37/1 20/40/1 23/107/1
f 23/107/1 20/40/1 28/42/1 31/109/1
f 31/109/1 28/42/1 36/44/1 39/111/1
f 39/111/1 36/44/1 44/46/1 47/113/1
f 47/113/1 44/46/1 52/48/1 55/115/1
f 55/115/1 52/48/1 60/50/1 63/117/1
f 63/117/1 60/50/1 68/52/1 71/119/1
f 71/119/1 68/52/1 76/54/1 79/121/1
f 79/121/1 76/54/1 84/56/1 87/123/1
f 87/123/1 84/56/1 92/58/1 95/125/1
f 95/125/1 92/58/1 100/60/1 103/127/1
f 103/127/1 100/60/1 108/62/1 111/129/1
f 111/129/1 108/62/1 116/64/1 119/131/1
f 119/131/1 116/64/1 124/66/1 127/133/1
f 127/133/1 124/66/1 132/68/1 135/135/1
f 6/2/50 8/103/50 16/106/50 14/3/50
f 14/3/51 16/106/51 24/108/51 22/5/51
f 22/5/52 24/108/52 32/110/52 30/7/52
f 30/7/53 32/110/53 40/112/53 38/9/53
f 38/9/54 40/112/54 48/114/54 46/11/54
f 46/11/55 48/114/55 56/116/55 54/13/55
f 54/13/56 56/116/56 64/118/56 62/15/56
f 62/15/57 64/118/57 72/120/57 70/17/57
f 70/17/58 72/120/58 80/122/58 78/19/58
f 78/19/59 80/122/59 88/124/59 86/21/59
f 86/21/60 88/124/60 96/126/60 94/23/60
f 94/23/61 96/126/61 104/128/61 102/25/61
f 102/25/62 104/128/62 112/130/62 110/27/62
f 110/27/63 112/130/63 120/132/63 118/29/63
f 118/29/64 120/132/64 128/134/64 126/31/64
f 126/31/65 128/134/65 136/136/65 134/33/65
f 4/137/1 10/69/1 18/72/1
f 4/137/1 18/72/1 26/74/1
f 4/137/1 26/74/1 34/76/1
f 4/137/1 34/76/1 42/78/1
f 4/137/1 42/78/1 50/80/1
f 4/137/1 50/80/1 58/82/1
f 4/137/1 58/82/1 66/84/1
f 4/137/1 66/84/1 74/86/1
f 4/137/1 74/86/1 82/88/1
f 4/137/1 82/88/1 90/90/1
f 4/137/1 90/90/1 98/92/1
f 4/137/1 98/92/1 106/94/1
f 4/137/1 106/94/1 114/96/1
f 4/137/1 114/96/1 122/98/1
f 4/137/1 122/98/1 130/100/1
f 4/137/1 130/100/1 138/102/1
f 9/70/2 5/1/2 13/4/2 17/71/2
f 17/71/3 13/4/3 21/6/3 25/73/3
f 25/73/4 21/6/4 29/8/4 33/75/4
f 33/75/5 29/8/5 37/10/5 41/77/5
f 41/77/6 37/10/6 45/12/6 49/79/6
f 49/79/7 45/12/7 53/14/7 57/81/7
f 57/81/8 53/14/8 61/16/8 65/83/8
f 65/83/66 61/16/66 69/18/66 73/85/66
f 73/85/10 69/18/10 77/20/10 81/87/10
f 81/87/11 77/20/11 85/22/11 89/89/11
f 89/89/12 85/22/12 93/24/12 97/91/12
f 97/91/13 93/24/13 101/26/13 105/93/13
f 105/93/14 101/26/14 109/28/14 113/95/14
f 113/95/15 109/28/15 117/30/15 121/97/15
f 121/97/16 117/30/16 125/32/16 129/99/16
f 129/99/17 125/32/17 133/34/17 137/101/17
l 4 1
