# Blender v2.82 (sub 7) OBJ File: 'trackPieces.blend'
# www.blender.org
mtllib trackpiece8.mtl
o Plane.004_Plane.006
v 1.500000 0.000000 -3.001081
v 2.500000 0.000000 -3.001081
v 2.500000 0.200000 -3.001081
v 1.500000 0.200000 -3.001081
v 1.600000 0.000000 -3.001081
v 2.400000 0.000000 -3.001081
v 2.480000 0.200000 -3.001081
v 2.400000 0.120000 -3.001081
v 1.600000 0.120000 -3.001081
v 1.520000 0.200000 -3.001081
v 1.492777 0.000000 -3.148107
v 2.487962 0.000000 -3.246124
v 2.487962 0.200000 -3.246124
v 1.492777 0.200000 -3.148107
v 1.592296 0.000000 -3.157908
v 2.388443 0.000000 -3.236322
v 2.468058 0.200000 -3.244164
v 2.388443 0.120000 -3.236322
v 1.592296 0.120000 -3.157908
v 1.512681 0.200000 -3.150067
v 1.471178 0.000000 -3.293716
v 2.451963 0.000000 -3.488807
v 2.451963 0.200000 -3.488807
v 1.471178 0.200000 -3.293716
v 1.569256 0.000000 -3.313226
v 2.353885 0.000000 -3.469298
v 2.432348 0.200000 -3.484905
v 2.353885 0.120000 -3.469298
v 1.569256 0.120000 -3.313226
v 1.490794 0.200000 -3.297618
v 1.435410 0.000000 -3.436508
v 2.392351 0.000000 -3.726793
v 2.392351 0.200000 -3.726793
v 1.435410 0.200000 -3.436508
v 1.531105 0.000000 -3.465536
v 2.296657 0.000000 -3.697764
v 2.373212 0.200000 -3.720987
v 2.296657 0.120000 -3.697764
v 1.531105 0.120000 -3.465536
v 1.454549 0.200000 -3.442314
v 1.385819 0.000000 -3.575106
v 2.309699 0.000000 -3.957790
v 2.309699 0.200000 -3.957790
v 1.385819 0.200000 -3.575106
v 1.478207 0.000000 -3.613374
v 2.217311 0.000000 -3.919521
v 2.291221 0.200000 -3.950136
v 2.217311 0.120000 -3.919521
v 1.478207 0.120000 -3.613374
v 1.404297 0.200000 -3.582760
v 1.322882 0.000000 -3.708176
v 2.204803 0.000000 -4.179573
v 2.204803 0.200000 -4.179573
v 1.322882 0.200000 -3.708176
v 1.411074 0.000000 -3.755316
v 2.116611 0.000000 -4.132433
v 2.187165 0.200000 -4.170145
v 2.116611 0.120000 -4.132433
v 1.411074 0.120000 -3.755316
v 1.340520 0.200000 -3.717604
v 1.247204 0.000000 -3.834436
v 2.078674 0.000000 -4.390007
v 2.078674 0.200000 -4.390007
v 1.247204 0.200000 -3.834436
v 1.330351 0.000000 -3.889993
v 1.995527 0.000000 -4.334450
v 2.062045 0.200000 -4.378895
v 1.995527 0.120000 -4.334450
v 1.330351 0.120000 -3.889993
v 1.263834 0.200000 -3.845548
v 1.159516 0.000000 -3.952671
v 1.932526 0.000000 -4.587064
v 1.932526 0.200000 -4.587064
v 1.159516 0.200000 -3.952671
v 1.236817 0.000000 -4.016110
v 1.855225 0.000000 -4.523625
v 1.917066 0.200000 -4.574377
v 1.855225 0.120000 -4.523625
v 1.236817 0.120000 -4.016110
v 1.174976 0.200000 -3.965359
v 1.060660 0.000000 -4.061741
v 1.767767 0.000000 -4.768848
v 1.767767 0.200000 -4.768848
v 1.060660 0.200000 -4.061741
v 1.131371 0.000000 -4.132452
v 1.697056 0.000000 -4.698137
v 1.753625 0.200000 -4.754706
v 1.697056 0.120000 -4.698137
v 1.131371 0.120000 -4.132452
v 1.074802 0.200000 -4.075883
v 0.951590 0.000000 -4.160597
v 1.585983 0.000000 -4.933607
v 1.585983 0.200000 -4.933607
v 0.951590 0.200000 -4.160597
v 1.015029 0.000000 -4.237898
v 1.522544 0.000000 -4.856306
v 1.573295 0.200000 -4.918147
v 1.522544 0.120000 -4.856306
v 1.015029 0.120000 -4.237898
v 0.964278 0.200000 -4.176057
v 0.833355 0.000000 -4.248285
v 1.388925 0.000000 -5.079755
v 1.388925 0.200000 -5.079755
v 0.833355 0.200000 -4.248285
v 0.888912 0.000000 -4.331432
v 1.333369 0.000000 -4.996608
v 1.377814 0.200000 -5.063126
v 1.333369 0.120000 -4.996608
v 0.888912 0.120000 -4.331432
v 0.844467 0.200000 -4.264915
v 0.707095 0.000000 -4.323963
v 1.178492 0.000000 -5.205884
v 1.178492 0.200000 -5.205884
v 0.707095 0.200000 -4.323963
v 0.754235 0.000000 -4.412155
v 1.131352 0.000000 -5.117692
v 1.169064 0.200000 -5.188246
v 1.131352 0.120000 -5.117692
v 0.754235 0.120000 -4.412155
v 0.716523 0.200000 -4.341601
v 0.574025 0.000000 -4.386900
v 0.956709 0.000000 -5.310780
v 0.956709 0.200000 -5.310780
v 0.574025 0.200000 -4.386900
v 0.612293 0.000000 -4.479288
v 0.918440 0.000000 -5.218392
v 0.949055 0.200000 -5.292302
v 0.918440 0.120000 -5.218392
v 0.612293 0.120000 -4.479288
v 0.581679 0.200000 -4.405378
v 0.435427 0.000000 -4.436491
v 0.725712 0.000000 -5.393432
v 0.725712 0.200000 -5.393432
v 0.435427 0.200000 -4.436491
v 0.464455 0.000000 -4.532186
v 0.696683 0.000000 -5.297738
v 0.719906 0.200000 -5.374293
v 0.696683 0.120000 -5.297738
v 0.464455 0.120000 -4.532186
v 0.441233 0.200000 -4.455630
v 0.292635 0.000000 -4.472259
v 0.487726 0.000000 -5.453044
v 0.487726 0.200000 -5.453044
v 0.292635 0.200000 -4.472259
v 0.312144 0.000000 -4.570337
v 0.468217 0.000000 -5.354966
v 0.483824 0.200000 -5.433429
v 0.468217 0.120000 -5.354966
v 0.312144 0.120000 -4.570337
v 0.296537 0.200000 -4.491875
v 0.147026 0.000000 -4.493858
v 0.245043 0.000000 -5.489043
v 0.245043 0.200000 -5.489043
v 0.147026 0.200000 -4.493858
v 0.156827 0.000000 -4.593377
v 0.235241 0.000000 -5.389524
v 0.243082 0.200000 -5.469139
v 0.235241 0.120000 -5.389524
v 0.156827 0.120000 -4.593377
v 0.148986 0.200000 -4.513762
v -0.000000 0.000000 -4.501081
v -0.000000 0.000000 -5.501081
v -0.000000 0.200000 -5.501081
v -0.000000 0.200000 -4.501081
v -0.000000 0.000000 -4.601081
v -0.000000 0.000000 -5.401081
v -0.000000 0.200000 -5.481081
v -0.000000 0.120000 -5.401081
v -0.000000 0.120000 -4.601081
v -0.000000 0.200000 -4.521081
vt 0.416947 0.826890
vt 0.250132 0.943036
vt 0.220807 0.892306
vt 0.397468 0.791574
vt 0.195076 0.841128
vt 0.379855 0.753967
vt 0.172864 0.788757
vt 0.364512 0.714781
vt 0.154164 0.735067
vt 0.351606 0.674305
vt 0.139054 0.680132
vt 0.341269 0.632785
vt 0.127630 0.624117
vt 0.333609 0.590440
vt 0.119983 0.567239
vt 0.328710 0.547479
vt 0.116187 0.509740
vt 0.326635 0.504109
vt 0.116303 0.451881
vt 0.327421 0.460541
vt 0.120371 0.393928
vt 0.331078 0.416990
vt 0.128419 0.336145
vt 0.337589 0.373681
vt 0.140460 0.278781
vt 0.346903 0.330855
vt 0.156501 0.222049
vt 0.358931 0.288777
vt 0.176562 0.166082
vt 0.373546 0.247764
vt 0.200674 0.110848
vt 0.390564 0.208235
vt 0.229091 0.055580
vt 0.409540 0.170795
vt 0.150318 0.999928
vt 0.194926 0.975555
vt 0.164933 0.921903
vt 0.120420 0.945207
vt 0.138180 0.867302
vt 0.092263 0.888581
vt 0.114544 0.811302
vt 0.067163 0.829942
vt 0.094387 0.753815
vt 0.045664 0.769477
vt 0.077958 0.694926
vt 0.028066 0.707405
vt 0.065432 0.634824
vt 0.014578 0.643980
vt 0.056940 0.573752
vt 0.005347 0.579482
vt 0.052581 0.511977
vt 0.000486 0.514206
vt 0.052424 0.449783
vt 0.000072 0.448459
vt 0.056517 0.387457
vt 0.004153 0.382554
vt 0.064878 0.325289
vt 0.012746 0.316806
vt 0.077498 0.263552
vt 0.025827 0.251526
vt 0.094328 0.202490
vt 0.043315 0.187011
vt 0.115263 0.142264
vt 0.065027 0.123517
vt 0.140152 0.082838
vt 0.090612 0.061212
vt 0.169118 0.023981
vt 0.119257 0.000072
vt 0.472069 0.796060
vt 0.515256 0.775253
vt 0.500284 0.743349
vt 0.455307 0.763335
vt 0.486548 0.710818
vt 0.440193 0.728915
vt 0.474459 0.677594
vt 0.426894 0.693250
vt 0.464269 0.643705
vt 0.415659 0.656587
vt 0.456150 0.609221
vt 0.406670 0.619105
vt 0.450221 0.574236
vt 0.400052 0.580968
vt 0.446562 0.538861
vt 0.395897 0.542337
vt 0.445230 0.503219
vt 0.394264 0.503376
vt 0.446253 0.467437
vt 0.395185 0.464249
vt 0.449639 0.431644
vt 0.398665 0.425124
vt 0.455372 0.395962
vt 0.404675 0.386169
vt 0.463402 0.360498
vt 0.413146 0.347550
vt 0.473639 0.325330
vt 0.423950 0.309435
vt 0.485929 0.290484
vt 0.436871 0.272001
vt 0.499996 0.255871
vt 0.451614 0.235439
vt 0.515256 0.221043
vt 0.467937 0.200310
vt 0.467838 0.798547
vt 0.443523 0.812550
vt 0.425161 0.777804
vt 0.450787 0.765494
vt 0.408699 0.741757
vt 0.435471 0.730836
vt 0.394355 0.704298
vt 0.422019 0.694908
vt 0.382277 0.665671
vt 0.410661 0.657955
vt 0.372608 0.626099
vt 0.401571 0.620163
vt 0.365466 0.585778
vt 0.394875 0.581700
vt 0.360938 0.544897
vt 0.390664 0.542733
vt 0.359084 0.503646
vt 0.388997 0.503430
vt 0.359939 0.462213
vt 0.389907 0.463958
vt 0.363509 0.420792
vt 0.393398 0.424490
vt 0.369770 0.379583
vt 0.399442 0.385197
vt 0.378657 0.338794
vt 0.407970 0.346255
vt 0.390055 0.298649
vt 0.418855 0.307839
vt 0.403779 0.259394
vt 0.431882 0.270139
vt 0.419549 0.221269
vt 0.446742 0.233336
vt 0.437139 0.184387
vt 0.463287 0.197880
vt 0.223435 0.958195
vt 0.199159 0.972894
vt 0.169337 0.919593
vt 0.194313 0.906363
vt 0.142718 0.865234
vt 0.168191 0.853462
vt 0.119202 0.809506
vt 0.145329 0.799326
vt 0.099163 0.752316
vt 0.125955 0.743821
vt 0.082840 0.693740
vt 0.110233 0.687011
vt 0.070404 0.633964
vt 0.098300 0.629064
vt 0.061980 0.573226
vt 0.090264 0.570206
vt 0.057667 0.511793
vt 0.086211 0.510691
vt 0.057533 0.449945
vt 0.086206 0.450789
vt 0.061624 0.387969
vt 0.090295 0.390775
vt 0.069961 0.326151
vt 0.098498 0.330922
vt 0.082535 0.264764
vt 0.110820 0.271491
vt 0.099301 0.204044
vt 0.127242 0.212702
vt 0.120166 0.144150
vt 0.147736 0.154698
vt 0.145007 0.085051
vt 0.172325 0.097513
vt 0.173891 0.026609
vt 0.200557 0.041167
vn 0.0000 1.0000 0.0000
vn -0.9988 0.0000 0.0491
vn -0.9892 0.0000 0.1467
vn -0.9700 0.0000 0.2430
vn -0.9415 0.0000 0.3369
vn -0.9040 0.0000 0.4276
vn -0.8577 0.0000 0.5141
vn -0.8032 0.0000 0.5957
vn -0.7410 0.0000 0.6716
vn -0.6716 0.0000 0.7410
vn -0.5957 0.0000 0.8032
vn -0.5141 0.0000 0.8577
vn -0.4276 0.0000 0.9040
vn -0.3369 0.0000 0.9415
vn -0.2430 0.0000 0.9700
vn -0.1467 0.0000 0.9892
vn -0.0491 0.0000 0.9988
vn 0.9988 0.0000 -0.0491
vn 0.9892 0.0000 -0.1467
vn 0.9700 0.0000 -0.2430
vn 0.9415 0.0000 -0.3369
vn 0.9040 0.0000 -0.4276
vn 0.8577 0.0000 -0.5141
vn 0.8032 0.0000 -0.5957
vn 0.7410 0.0000 -0.6716
vn 0.6716 0.0000 -0.7409
vn 0.5957 0.0000 -0.8032
vn 0.5141 0.0000 -0.8577
vn 0.4276 0.0000 -0.9040
vn 0.3369 0.0000 -0.9415
vn 0.2430 0.0000 -0.9700
vn 0.1467 0.0000 -0.9892
vn 0.0491 0.0000 -0.9988
vn 0.7067 0.7067 -0.0347
vn 0.6999 0.7067 -0.1038
vn 0.6863 0.7067 -0.1719
vn 0.6662 0.7067 -0.2384
vn 0.6396 0.7067 -0.3025
vn 0.6069 0.7067 -0.3637
vn 0.5683 0.7067 -0.4215
vn 0.5242 0.7067 -0.4751
vn 0.4751 0.7067 -0.5242
vn 0.4215 0.7067 -0.5683
vn 0.3637 0.7067 -0.6069
vn 0.3025 0.7067 -0.6396
vn 0.2384 0.7067 -0.6662
vn 0.1719 0.7067 -0.6863
vn 0.1038 0.7067 -0.6999
vn 0.0347 0.7067 -0.7067
vn -0.7067 0.7067 0.0347
vn -0.6999 0.7067 0.1038
vn -0.6863 0.7067 0.1719
vn -0.6662 0.7067 0.2384
vn -0.6396 0.7067 0.3025
vn -0.6069 0.7067 0.3637
vn -0.5683 0.7067 0.4215
vn -0.5242 0.7067 0.4752
vn -0.4752 0.7067 0.5242
vn -0.4215 0.7067 0.5683
vn -0.3637 0.7067 0.6069
vn -0.3025 0.7067 0.6396
vn -0.2384 0.7067 0.6662
vn -0.1719 0.7067 0.6863
vn -0.1038 0.7067 0.6999
vn -0.0347 0.7067 0.7067
vn 0.6716 0.0000 -0.7410
g Plane.004_Plane.006_corner4
usemtl corner4
s off
f 5/1/1 6/2/1 16/3/1 15/4/1
f 15/4/1 16/3/1 26/5/1 25/6/1
f 25/6/1 26/5/1 36/7/1 35/8/1
f 35/8/1 36/7/1 46/9/1 45/10/1
f 45/10/1 46/9/1 56/11/1 55/12/1
f 55/12/1 56/11/1 66/13/1 65/14/1
f 65/14/1 66/13/1 76/15/1 75/16/1
f 75/16/1 76/15/1 86/17/1 85/18/1
f 85/18/1 86/17/1 96/19/1 95/20/1
f 95/20/1 96/19/1 106/21/1 105/22/1
f 105/22/1 106/21/1 116/23/1 115/24/1
f 115/24/1 116/23/1 126/25/1 125/26/1
f 125/26/1 126/25/1 136/27/1 135/28/1
f 135/28/1 136/27/1 146/29/1 145/30/1
f 145/30/1 146/29/1 156/31/1 155/32/1
f 155/32/1 156/31/1 166/33/1 165/34/1
f 2/35/2 3/36/2 13/37/2 12/38/2
f 12/38/3 13/37/3 23/39/3 22/40/3
f 22/40/4 23/39/4 33/41/4 32/42/4
f 32/42/5 33/41/5 43/43/5 42/44/5
f 42/44/6 43/43/6 53/45/6 52/46/6
f 52/46/7 53/45/7 63/47/7 62/48/7
f 62/48/8 63/47/8 73/49/8 72/50/8
f 72/50/9 73/49/9 83/51/9 82/52/9
f 82/52/10 83/51/10 93/53/10 92/54/10
f 92/54/11 93/53/11 103/55/11 102/56/11
f 102/56/12 103/55/12 113/57/12 112/58/12
f 112/58/13 113/57/13 123/59/13 122/60/13
f 122/60/14 123/59/14 133/61/14 132/62/14
f 132/62/15 133/61/15 143/63/15 142/64/15
f 142/64/16 143/63/16 153/65/16 152/66/16
f 152/66/17 153/65/17 163/67/17 162/68/17
f 4/69/18 1/70/18 11/71/18 14/72/18
f 14/72/19 11/71/19 21/73/19 24/74/19
f 24/74/20 21/73/20 31/75/20 34/76/20
f 34/76/21 31/75/21 41/77/21 44/78/21
f 44/78/22 41/77/22 51/79/22 54/80/22
f 54/80/23 51/79/23 61/81/23 64/82/23
f 64/82/24 61/81/24 71/83/24 74/84/24
f 74/84/25 71/83/25 81/85/25 84/86/25
f 84/86/26 81/85/26 91/87/26 94/88/26
f 94/88/27 91/87/27 101/89/27 104/90/27
f 104/90/28 101/89/28 111/91/28 114/92/28
f 114/92/29 111/91/29 121/93/29 124/94/29
f 124/94/30 121/93/30 131/95/30 134/96/30
f 134/96/31 131/95/31 141/97/31 144/98/31
f 144/98/32 141/97/32 151/99/32 154/100/32
f 154/100/33 151/99/33 161/101/33 164/102/33
f 10/103/34 9/104/34 19/105/34 20/106/34
f 20/106/35 19/105/35 29/107/35 30/108/35
f 30/108/36 29/107/36 39/109/36 40/110/36
f 40/110/37 39/109/37 49/111/37 50/112/37
f 50/112/38 49/111/38 59/113/38 60/114/38
f 60/114/39 59/113/39 69/115/39 70/116/39
f 70/116/40 69/115/40 79/117/40 80/118/40
f 80/118/41 79/117/41 89/119/41 90/120/41
f 90/120/42 89/119/42 99/121/42 100/122/42
f 100/122/43 99/121/43 109/123/43 110/124/43
f 110/124/44 109/123/44 119/125/44 120/126/44
f 120/126/45 119/125/45 129/127/45 130/128/45
f 130/128/46 129/127/46 139/129/46 140/130/46
f 140/130/47 139/129/47 149/131/47 150/132/47
f 150/132/48 149/131/48 159/133/48 160/134/48
f 160/134/49 159/133/49 169/135/49 170/136/49
f 8/137/50 7/138/50 17/139/50 18/140/50
f 18/140/51 17/139/51 27/141/51 28/142/51
f 28/142/52 27/141/52 37/143/52 38/144/52
f 38/144/53 37/143/53 47/145/53 48/146/53
f 48/146/54 47/145/54 57/147/54 58/148/54
f 58/148/55 57/147/55 67/149/55 68/150/55
f 68/150/56 67/149/56 77/151/56 78/152/56
f 78/152/57 77/151/57 87/153/57 88/154/57
f 88/154/58 87/153/58 97/155/58 98/156/58
f 98/156/59 97/155/59 107/157/59 108/158/59
f 108/158/60 107/157/60 117/159/60 118/160/60
f 118/160/61 117/159/61 127/161/61 128/162/61
f 128/162/62 127/161/62 137/163/62 138/164/62
f 138/164/63 137/163/63 147/165/63 148/166/63
f 148/166/64 147/165/64 157/167/64 158/168/64
f 158/168/65 157/167/65 167/169/65 168/170/65
f 7/138/1 3/36/1 13/37/1 17/139/1
f 17/139/1 13/37/1 23/39/1 27/141/1
f 27/141/1 23/39/1 33/41/1 37/143/1
f 37/143/1 33/41/1 43/43/1 47/145/1
f 47/145/1 43/43/1 53/45/1 57/147/1
f 57/147/1 53/45/1 63/47/1 67/149/1
f 67/149/1 63/47/1 73/49/1 77/151/1
f 77/151/1 73/49/1 83/51/1 87/153/1
f 87/153/1 83/51/1 93/53/1 97/155/1
f 97/155/1 93/53/1 103/55/1 107/157/1
f 107/157/1 103/55/1 113/57/1 117/159/1
f 117/159/1 113/57/1 123/59/1 127/161/1
f 127/161/1 123/59/1 133/61/1 137/163/1
f 137/163/1 133/61/1 143/63/1 147/165/1
f 147/165/1 143/63/1 153/65/1 157/167/1
f 157/167/1 153/65/1 163/67/1 167/169/1
f 6/2/2 8/137/2 18/140/2 16/3/2
f 16/3/3 18/140/3 28/142/3 26/5/3
f 26/5/4 28/142/4 38/144/4 36/7/4
f 36/7/5 38/144/5 48/146/5 46/9/5
f 46/9/6 48/146/6 58/148/6 56/11/6
f 56/11/7 58/148/7 68/150/7 66/13/7
f 66/13/8 68/150/8 78/152/8 76/15/8
f 76/15/9 78/152/9 88/154/9 86/17/9
f 86/17/10 88/154/10 98/156/10 96/19/10
f 96/19/11 98/156/11 108/158/11 106/21/11
f 106/21/12 108/158/12 118/160/12 116/23/12
f 116/23/13 118/160/13 128/162/13 126/25/13
f 126/25/14 128/162/14 138/164/14 136/27/14
f 136/27/15 138/164/15 148/166/15 146/29/15
f 146/29/16 148/166/16 158/168/16 156/31/16
f 156/31/17 158/168/17 168/170/17 166/33/17
f 4/69/1 10/103/1 20/106/1 14/72/1
f 14/72/1 20/106/1 30/108/1 24/74/1
f 24/74/1 30/108/1 40/110/1 34/76/1
f 34/76/1 40/110/1 50/112/1 44/78/1
f 44/78/1 50/112/1 60/114/1 54/80/1
f 54/80/1 60/114/1 70/116/1 64/82/1
f 64/82/1 70/116/1 80/118/1 74/84/1
f 74/84/1 80/118/1 90/120/1 84/86/1
f 84/86/1 90/120/1 100/122/1 94/88/1
f 94/88/1 100/122/1 110/124/1 104/90/1
f 104/90/1 110/124/1 120/126/1 114/92/1
f 114/92/1 120/126/1 130/128/1 124/94/1
f 124/94/1 130/128/1 140/130/1 134/96/1
f 134/96/1 140/130/1 150/132/1 144/98/1
f 144/98/1 150/132/1 160/134/1 154/100/1
f 154/100/1 160/134/1 170/136/1 164/102/1
f 9/104/18 5/1/18 15/4/18 19/105/18
f 19/105/19 15/4/19 25/6/19 29/107/19
f 29/107/20 25/6/20 35/8/20 39/109/20
f 39/109/21 35/8/21 45/10/21 49/111/21
f 49/111/22 45/10/22 55/12/22 59/113/22
f 59/113/23 55/12/23 65/14/23 69/115/23
f 69/115/24 65/14/24 75/16/24 79/117/24
f 79/117/25 75/16/25 85/18/25 89/119/25
f 89/119/66 85/18/66 95/20/66 99/121/66
f 99/121/27 95/20/27 105/22/27 109/123/27
f 109/123/28 105/22/28 115/24/28 119/125/28
f 119/125/29 115/24/29 125/26/29 129/127/29
f 129/127/30 125/26/30 135/28/30 139/129/30
f 139/129/31 135/28/31 145/30/31 149/131/31
f 149/131/32 145/30/32 155/32/32 159/133/32
f 159/133/33 155/32/33 165/34/33 169/135/33
