# Blender v2.82 (sub 7) OBJ File: 'trackPieces.blend'
# www.blender.org
mtllib trackpiece7.mtl
o Plane.003_Plane.005
v 0.451700 0.000000 -3.001081
v 1.451700 0.000000 -3.001081
v 1.451700 0.200000 -3.001081
v 0.451700 0.200000 -3.001081
v 0.551700 0.000000 -3.001081
v 1.351700 0.000000 -3.001081
v 1.431700 0.200000 -3.001081
v 1.351700 0.120000 -3.001081
v 0.551700 0.120000 -3.001081
v 0.471700 0.200000 -3.001081
v 0.449292 0.000000 -3.050090
v 1.444477 0.000000 -3.148107
v 1.444477 0.200000 -3.148107
v 0.449292 0.200000 -3.050090
v 0.548811 0.000000 -3.059891
v 1.344959 0.000000 -3.138305
v 1.424573 0.200000 -3.146146
v 1.344959 0.120000 -3.138305
v 0.548811 0.120000 -3.059891
v 0.469196 0.200000 -3.052050
v 0.442093 0.000000 -3.098626
v 1.422878 0.000000 -3.293716
v 1.422878 0.200000 -3.293716
v 0.442093 0.200000 -3.098626
v 0.540171 0.000000 -3.118135
v 1.324799 0.000000 -3.274207
v 1.403262 0.200000 -3.289815
v 1.324799 0.120000 -3.274207
v 0.540171 0.120000 -3.118135
v 0.461708 0.200000 -3.102528
v 0.430170 0.000000 -3.146223
v 1.387110 0.000000 -3.436508
v 1.387110 0.200000 -3.436508
v 0.430170 0.200000 -3.146223
v 0.525864 0.000000 -3.175252
v 1.291416 0.000000 -3.407480
v 1.367972 0.200000 -3.430702
v 1.291416 0.120000 -3.407480
v 0.525864 0.120000 -3.175252
v 0.449309 0.200000 -3.152029
v 0.413640 0.000000 -3.192423
v 1.337519 0.000000 -3.575106
v 1.337519 0.200000 -3.575106
v 0.413640 0.200000 -3.192423
v 0.506028 0.000000 -3.230691
v 1.245131 0.000000 -3.536838
v 1.319042 0.200000 -3.567452
v 1.245131 0.120000 -3.536838
v 0.506028 0.120000 -3.230691
v 0.432117 0.200000 -3.200076
v 0.392661 0.000000 -3.236779
v 1.274582 0.000000 -3.708176
v 1.274582 0.200000 -3.708176
v 0.392661 0.200000 -3.236779
v 0.480853 0.000000 -3.283919
v 1.186390 0.000000 -3.661036
v 1.256943 0.200000 -3.698748
v 1.186390 0.120000 -3.661036
v 0.480853 0.120000 -3.283919
v 0.410299 0.200000 -3.246207
v 0.367435 0.000000 -3.278866
v 1.198904 0.000000 -3.834436
v 1.198904 0.200000 -3.834436
v 0.367435 0.200000 -3.278866
v 0.450582 0.000000 -3.334423
v 1.115757 0.000000 -3.778879
v 1.182275 0.200000 -3.823325
v 1.115757 0.120000 -3.778879
v 0.450582 0.120000 -3.334423
v 0.384064 0.200000 -3.289978
v 0.338205 0.000000 -3.318278
v 1.111216 0.000000 -3.952671
v 1.111216 0.200000 -3.952671
v 0.338205 0.200000 -3.318278
v 0.415506 0.000000 -3.381717
v 1.033915 0.000000 -3.889232
v 1.095755 0.200000 -3.939983
v 1.033915 0.120000 -3.889232
v 0.415506 0.120000 -3.381717
v 0.353665 0.200000 -3.330966
v 0.305253 0.000000 -3.354634
v 1.012360 0.000000 -4.061741
v 1.012360 0.200000 -4.061741
v 0.305253 0.200000 -3.354634
v 0.375964 0.000000 -3.425345
v 0.941649 0.000000 -3.991030
v 0.998218 0.200000 -4.047599
v 0.941649 0.120000 -3.991030
v 0.375964 0.120000 -3.425345
v 0.319395 0.200000 -3.368777
v 0.268897 0.000000 -3.387586
v 0.903290 0.000000 -4.160597
v 0.903290 0.200000 -4.160597
v 0.268897 0.200000 -3.387586
v 0.332336 0.000000 -3.464887
v 0.839851 0.000000 -4.083296
v 0.890602 0.200000 -4.145136
v 0.839851 0.120000 -4.083296
v 0.332336 0.120000 -3.464887
v 0.281584 0.200000 -3.403046
v 0.229485 0.000000 -3.416816
v 0.785055 0.000000 -4.248285
v 0.785055 0.200000 -4.248285
v 0.229485 0.200000 -3.416816
v 0.285042 0.000000 -3.499963
v 0.729498 0.000000 -4.165138
v 0.773944 0.200000 -4.231656
v 0.729498 0.120000 -4.165138
v 0.285042 0.120000 -3.499963
v 0.240596 0.200000 -3.433445
v 0.187398 0.000000 -3.442042
v 0.658795 0.000000 -4.323963
v 0.658795 0.200000 -4.323963
v 0.187398 0.200000 -3.442042
v 0.234538 0.000000 -3.530234
v 0.611655 0.000000 -4.235771
v 0.649367 0.200000 -4.306324
v 0.611655 0.120000 -4.235771
v 0.234538 0.120000 -3.530234
v 0.196826 0.200000 -3.459680
v 0.143042 0.000000 -3.463021
v 0.525725 0.000000 -4.386900
v 0.525725 0.200000 -4.386900
v 0.143042 0.200000 -3.463021
v 0.181310 0.000000 -3.555409
v 0.487457 0.000000 -4.294512
v 0.518071 0.200000 -4.368423
v 0.487457 0.120000 -4.294512
v 0.181310 0.120000 -3.555409
v 0.150695 0.200000 -3.481498
v 0.096842 0.000000 -3.479551
v 0.387127 0.000000 -4.436491
v 0.387127 0.200000 -4.436491
v 0.096842 0.200000 -3.479551
v 0.125871 0.000000 -3.575245
v 0.358098 0.000000 -4.340797
v 0.381321 0.200000 -4.417353
v 0.358098 0.120000 -4.340797
v 0.125871 0.120000 -3.575245
v 0.102648 0.200000 -3.498690
v 0.049245 0.000000 -3.491474
v 0.244335 0.000000 -4.472259
v 0.244335 0.200000 -4.472259
v 0.049245 0.200000 -3.491474
v 0.068754 0.000000 -3.589552
v 0.224826 0.000000 -4.374180
v 0.240434 0.200000 -4.452643
v 0.224826 0.120000 -4.374180
v 0.068754 0.120000 -3.589552
v 0.053147 0.200000 -3.511089
v 0.000709 0.000000 -3.498673
v 0.098726 0.000000 -4.493858
v 0.098726 0.200000 -4.493858
v 0.000709 0.200000 -3.498673
v 0.010510 0.000000 -3.598192
v 0.088924 0.000000 -4.394340
v 0.096765 0.200000 -4.473954
v 0.088924 0.120000 -4.394340
v 0.010510 0.120000 -3.598192
v 0.002669 0.200000 -3.518577
v -0.048300 0.000000 -3.501081
v -0.048300 0.000000 -4.501081
v -0.048300 0.200000 -4.501081
v -0.048300 0.200000 -3.501081
v -0.048300 0.000000 -3.601081
v -0.048300 0.000000 -4.401081
v -0.048300 0.200000 -4.481081
v -0.048300 0.120000 -4.401081
v -0.048300 0.120000 -3.601081
v -0.048300 0.200000 -3.521081
vt 0.958618 0.365430
vt 0.999902 0.748190
vt 0.934900 0.748135
vt 0.930902 0.363770
vt 0.872407 0.743939
vt 0.902212 0.359788
vt 0.811578 0.735524
vt 0.873208 0.353636
vt 0.752157 0.722929
vt 0.844188 0.345427
vt 0.694132 0.706169
vt 0.815391 0.335266
vt 0.637625 0.685268
vt 0.787022 0.323249
vt 0.582832 0.660269
vt 0.759270 0.309472
vt 0.529988 0.631246
vt 0.732312 0.294031
vt 0.479343 0.598298
vt 0.706322 0.277028
vt 0.431141 0.561541
vt 0.681470 0.258574
vt 0.385606 0.521098
vt 0.657925 0.238787
vt 0.342929 0.477073
vt 0.635866 0.217797
vt 0.303253 0.429529
vt 0.615480 0.195752
vt 0.266656 0.378439
vt 0.596977 0.172823
vt 0.233114 0.323627
vt 0.580590 0.149228
vt 0.202152 0.264136
vt 0.566625 0.125325
vt 0.990991 0.970458
vt 0.998346 0.872589
vt 0.927478 0.869029
vt 0.918956 0.965041
vt 0.858422 0.861849
vt 0.845929 0.957454
vt 0.790425 0.851025
vt 0.772703 0.946113
vt 0.723462 0.836138
vt 0.699772 0.930284
vt 0.657678 0.816877
vt 0.627617 0.909562
vt 0.593332 0.793076
vt 0.556724 0.883749
vt 0.530744 0.764688
vt 0.487574 0.852788
vt 0.470248 0.731752
vt 0.420633 0.816740
vt 0.412175 0.694378
vt 0.356337 0.775759
vt 0.356826 0.652734
vt 0.295078 0.730079
vt 0.304453 0.607024
vt 0.237178 0.680013
vt 0.255235 0.557481
vt 0.182868 0.625943
vt 0.209240 0.504339
vt 0.132240 0.568309
vt 0.166390 0.447791
vt 0.085201 0.507596
vt 0.126403 0.387852
vt 0.041403 0.444324
vt 0.089168 0.324011
vt 0.000098 0.379130
vt 0.972148 0.257764
vt 0.999902 0.176966
vt 0.980331 0.170117
vt 0.951157 0.252703
vt 0.960789 0.162919
vt 0.929414 0.246520
vt 0.941332 0.155250
vt 0.907288 0.239297
vt 0.922021 0.147023
vt 0.885012 0.231029
vt 0.902917 0.138177
vt 0.862769 0.221704
vt 0.884076 0.128669
vt 0.840714 0.211323
vt 0.865545 0.118478
vt 0.818981 0.199909
vt 0.847365 0.107596
vt 0.797692 0.187500
vt 0.829565 0.096034
vt 0.776956 0.174156
vt 0.812165 0.083818
vt 0.756868 0.159955
vt 0.795171 0.070988
vt 0.737516 0.144997
vt 0.778575 0.057602
vt 0.718978 0.129406
vt 0.762355 0.043732
vt 0.701325 0.113330
vt 0.746465 0.029469
vt 0.684633 0.096942
vt 0.730833 0.014928
vt 0.669004 0.080421
vt 0.715143 0.000098
vt 0.654699 0.064050
vt 0.970689 0.266028
vt 0.964721 0.313176
vt 0.939431 0.309477
vt 0.949038 0.261342
vt 0.914084 0.304390
vt 0.926812 0.255375
vt 0.888586 0.297778
vt 0.904240 0.248253
vt 0.863060 0.289629
vt 0.881524 0.240005
vt 0.837668 0.279968
vt 0.858845 0.230634
vt 0.812575 0.268845
vt 0.836360 0.220150
vt 0.787942 0.256320
vt 0.814213 0.208580
vt 0.763923 0.242468
vt 0.792531 0.195969
vt 0.740662 0.227375
vt 0.771429 0.182380
vt 0.718294 0.211144
vt 0.751012 0.167896
vt 0.696948 0.193887
vt 0.731375 0.152621
vt 0.676741 0.175734
vt 0.712605 0.136679
vt 0.657779 0.156824
vt 0.694783 0.120220
vt 0.640144 0.137302
vt 0.677987 0.103416
vt 0.623881 0.117295
vt 0.662298 0.086436
vt 0.609016 0.096881
vt 0.647960 0.069360
vt 0.998725 0.807634
vt 0.998333 0.862940
vt 0.928201 0.859539
vt 0.931743 0.805232
vt 0.859643 0.852471
vt 0.866060 0.799302
vt 0.792177 0.841787
vt 0.801732 0.789589
vt 0.725798 0.827052
vt 0.738693 0.775810
vt 0.660628 0.807971
vt 0.676995 0.757803
vt 0.596910 0.784391
vt 0.616807 0.735491
vt 0.534948 0.756268
vt 0.558367 0.708868
vt 0.475067 0.723643
vt 0.501948 0.677988
vt 0.417590 0.686625
vt 0.447831 0.642948
vt 0.362812 0.645374
vt 0.396280 0.603885
vt 0.310980 0.600087
vt 0.347525 0.560952
vt 0.262269 0.550986
vt 0.301743 0.514306
vt 0.216753 0.498285
vt 0.259040 0.464072
vt 0.174365 0.442150
vt 0.219442 0.410315
vt 0.134881 0.382577
vt 0.182934 0.353030
vt 0.098242 0.319221
vt 0.149383 0.292837
vn 0.0000 1.0000 0.0000
vn -0.9988 0.0000 0.0491
vn -0.9892 0.0000 0.1467
vn -0.9700 0.0000 0.2430
vn -0.9415 0.0000 0.3369
vn -0.9040 0.0000 0.4276
vn -0.8577 0.0000 0.5141
vn -0.8032 0.0000 0.5957
vn -0.7410 0.0000 0.6716
vn -0.6716 0.0000 0.7409
vn -0.5957 0.0000 0.8032
vn -0.5141 0.0000 0.8577
vn -0.4276 0.0000 0.9040
vn -0.3369 0.0000 0.9415
vn -0.2430 0.0000 0.9700
vn -0.1467 0.0000 0.9892
vn -0.0491 0.0000 0.9988
vn 0.9988 0.0000 -0.0491
vn 0.9892 0.0000 -0.1467
vn 0.9700 0.0000 -0.2430
vn 0.9415 0.0000 -0.3369
vn 0.9040 0.0000 -0.4276
vn 0.8577 0.0000 -0.5141
vn 0.8032 0.0000 -0.5957
vn 0.7410 0.0000 -0.6716
vn 0.6716 0.0000 -0.7410
vn 0.5957 0.0000 -0.8032
vn 0.5141 0.0000 -0.8577
vn 0.4276 0.0000 -0.9040
vn 0.3369 0.0000 -0.9415
vn 0.2430 0.0000 -0.9700
vn 0.1467 0.0000 -0.9892
vn 0.0491 0.0000 -0.9988
vn 0.7067 0.7067 -0.0347
vn 0.6999 0.7067 -0.1038
vn 0.6863 0.7067 -0.1719
vn 0.6662 0.7067 -0.2384
vn 0.6396 0.7067 -0.3025
vn 0.6069 0.7067 -0.3637
vn 0.5683 0.7067 -0.4215
vn 0.5242 0.7067 -0.4751
vn 0.4751 0.7067 -0.5242
vn 0.4215 0.7067 -0.5683
vn 0.3637 0.7067 -0.6069
vn 0.3025 0.7067 -0.6396
vn 0.2384 0.7067 -0.6662
vn 0.1719 0.7067 -0.6863
vn 0.1038 0.7067 -0.6999
vn 0.0347 0.7067 -0.7067
vn -0.7067 0.7067 0.0347
vn -0.6999 0.7067 0.1038
vn -0.6863 0.7067 0.1719
vn -0.6662 0.7067 0.2384
vn -0.6396 0.7067 0.3025
vn -0.6069 0.7067 0.3637
vn -0.5683 0.7067 0.4215
vn -0.5242 0.7067 0.4751
vn -0.4751 0.7067 0.5242
vn -0.4215 0.7067 0.5683
vn -0.3637 0.7067 0.6069
vn -0.3025 0.7067 0.6396
vn -0.2384 0.7067 0.6662
vn -0.1719 0.7067 0.6863
vn -0.1038 0.7067 0.6999
vn -0.0347 0.7067 0.7067
vn -0.6716 0.0000 0.7410
vn 0.7409 0.0000 -0.6716
g Plane.003_Plane.005_corner3
usemtl corner3
s off
f 5/1/1 6/2/1 16/3/1 15/4/1
f 15/4/1 16/3/1 26/5/1 25/6/1
f 25/6/1 26/5/1 36/7/1 35/8/1
f 35/8/1 36/7/1 46/9/1 45/10/1
f 45/10/1 46/9/1 56/11/1 55/12/1
f 55/12/1 56/11/1 66/13/1 65/14/1
f 65/14/1 66/13/1 76/15/1 75/16/1
f 75/16/1 76/15/1 86/17/1 85/18/1
f 85/18/1 86/17/1 96/19/1 95/20/1
f 95/20/1 96/19/1 106/21/1 105/22/1
f 105/22/1 106/21/1 116/23/1 115/24/1
f 115/24/1 116/23/1 126/25/1 125/26/1
f 125/26/1 126/25/1 136/27/1 135/28/1
f 135/28/1 136/27/1 146/29/1 145/30/1
f 145/30/1 146/29/1 156/31/1 155/32/1
f 155/32/1 156/31/1 166/33/1 165/34/1
f 2/35/2 3/36/2 13/37/2 12/38/2
f 12/38/3 13/37/3 23/39/3 22/40/3
f 22/40/4 23/39/4 33/41/4 32/42/4
f 32/42/5 33/41/5 43/43/5 42/44/5
f 42/44/6 43/43/6 53/45/6 52/46/6
f 52/46/7 53/45/7 63/47/7 62/48/7
f 62/48/8 63/47/8 73/49/8 72/50/8
f 72/50/9 73/49/9 83/51/9 82/52/9
f 82/52/10 83/51/10 93/53/10 92/54/10
f 92/54/11 93/53/11 103/55/11 102/56/11
f 102/56/12 103/55/12 113/57/12 112/58/12
f 112/58/13 113/57/13 123/59/13 122/60/13
f 122/60/14 123/59/14 133/61/14 132/62/14
f 132/62/15 133/61/15 143/63/15 142/64/15
f 142/64/16 143/63/16 153/65/16 152/66/16
f 152/66/17 153/65/17 163/67/17 162/68/17
f 4/69/18 1/70/18 11/71/18 14/72/18
f 14/72/19 11/71/19 21/73/19 24/74/19
f 24/74/20 21/73/20 31/75/20 34/76/20
f 34/76/21 31/75/21 41/77/21 44/78/21
f 44/78/22 41/77/22 51/79/22 54/80/22
f 54/80/23 51/79/23 61/81/23 64/82/23
f 64/82/24 61/81/24 71/83/24 74/84/24
f 74/84/25 71/83/25 81/85/25 84/86/25
f 84/86/26 81/85/26 91/87/26 94/88/26
f 94/88/27 91/87/27 101/89/27 104/90/27
f 104/90/28 101/89/28 111/91/28 114/92/28
f 114/92/29 111/91/29 121/93/29 124/94/29
f 124/94/30 121/93/30 131/95/30 134/96/30
f 134/96/31 131/95/31 141/97/31 144/98/31
f 144/98/32 141/97/32 151/99/32 154/100/32
f 154/100/33 151/99/33 161/101/33 164/102/33
f 10/103/34 9/104/34 19/105/34 20/106/34
f 20/106/35 19/105/35 29/107/35 30/108/35
f 30/108/36 29/107/36 39/109/36 40/110/36
f 40/110/37 39/109/37 49/111/37 50/112/37
f 50/112/38 49/111/38 59/113/38 60/114/38
f 60/114/39 59/113/39 69/115/39 70/116/39
f 70/116/40 69/115/40 79/117/40 80/118/40
f 80/118/41 79/117/41 89/119/41 90/120/41
f 90/120/42 89/119/42 99/121/42 100/122/42
f 100/122/43 99/121/43 109/123/43 110/124/43
f 110/124/44 109/123/44 119/125/44 120/126/44
f 120/126/45 119/125/45 129/127/45 130/128/45
f 130/128/46 129/127/46 139/129/46 140/130/46
f 140/130/47 139/129/47 149/131/47 150/132/47
f 150/132/48 149/131/48 159/133/48 160/134/48
f 160/134/49 159/133/49 169/135/49 170/136/49
f 8/137/50 7/138/50 17/139/50 18/140/50
f 18/140/51 17/139/51 27/141/51 28/142/51
f 28/142/52 27/141/52 37/143/52 38/144/52
f 38/144/53 37/143/53 47/145/53 48/146/53
f 48/146/54 47/145/54 57/147/54 58/148/54
f 58/148/55 57/147/55 67/149/55 68/150/55
f 68/150/56 67/149/56 77/151/56 78/152/56
f 78/152/57 77/151/57 87/153/57 88/154/57
f 88/154/58 87/153/58 97/155/58 98/156/58
f 98/156/59 97/155/59 107/157/59 108/158/59
f 108/158/60 107/157/60 117/159/60 118/160/60
f 118/160/61 117/159/61 127/161/61 128/162/61
f 128/162/62 127/161/62 137/163/62 138/164/62
f 138/164/63 137/163/63 147/165/63 148/166/63
f 148/166/64 147/165/64 157/167/64 158/168/64
f 158/168/65 157/167/65 167/169/65 168/170/65
f 7/138/1 3/36/1 13/37/1 17/139/1
f 17/139/1 13/37/1 23/39/1 27/141/1
f 27/141/1 23/39/1 33/41/1 37/143/1
f 37/143/1 33/41/1 43/43/1 47/145/1
f 47/145/1 43/43/1 53/45/1 57/147/1
f 57/147/1 53/45/1 63/47/1 67/149/1
f 67/149/1 63/47/1 73/49/1 77/151/1
f 77/151/1 73/49/1 83/51/1 87/153/1
f 87/153/1 83/51/1 93/53/1 97/155/1
f 97/155/1 93/53/1 103/55/1 107/157/1
f 107/157/1 103/55/1 113/57/1 117/159/1
f 117/159/1 113/57/1 123/59/1 127/161/1
f 127/161/1 123/59/1 133/61/1 137/163/1
f 137/163/1 133/61/1 143/63/1 147/165/1
f 147/165/1 143/63/1 153/65/1 157/167/1
f 157/167/1 153/65/1 163/67/1 167/169/1
f 6/2/2 8/137/2 18/140/2 16/3/2
f 16/3/3 18/140/3 28/142/3 26/5/3
f 26/5/4 28/142/4 38/144/4 36/7/4
f 36/7/5 38/144/5 48/146/5 46/9/5
f 46/9/6 48/146/6 58/148/6 56/11/6
f 56/11/7 58/148/7 68/150/7 66/13/7
f 66/13/8 68/150/8 78/152/8 76/15/8
f 76/15/9 78/152/9 88/154/9 86/17/9
f 86/17/66 88/154/66 98/156/66 96/19/66
f 96/19/11 98/156/11 108/158/11 106/21/11
f 106/21/12 108/158/12 118/160/12 116/23/12
f 116/23/13 118/160/13 128/162/13 126/25/13
f 126/25/14 128/162/14 138/164/14 136/27/14
f 136/27/15 138/164/15 148/166/15 146/29/15
f 146/29/16 148/166/16 158/168/16 156/31/16
f 156/31/17 158/168/17 168/170/17 166/33/17
f 4/69/1 10/103/1 20/106/1 14/72/1
f 14/72/1 20/106/1 30/108/1 24/74/1
f 24/74/1 30/108/1 40/110/1 34/76/1
f 34/76/1 40/110/1 50/112/1 44/78/1
f 44/78/1 50/112/1 60/114/1 54/80/1
f 54/80/1 60/114/1 70/116/1 64/82/1
f 64/82/1 70/116/1 80/118/1 74/84/1
f 74/84/1 80/118/1 90/120/1 84/86/1
f 84/86/1 90/120/1 100/122/1 94/88/1
f 94/88/1 100/122/1 110/124/1 104/90/1
f 104/90/1 110/124/1 120/126/1 114/92/1
f 114/92/1 120/126/1 130/128/1 124/94/1
f 124/94/1 130/128/1 140/130/1 134/96/1
f 134/96/1 140/130/1 150/132/1 144/98/1
f 144/98/1 150/132/1 160/134/1 154/100/1
f 154/100/1 160/134/1 170/136/1 164/102/1
f 9/104/18 5/1/18 15/4/18 19/105/18
f 19/105/19 15/4/19 25/6/19 29/107/19
f 29/107/20 25/6/20 35/8/20 39/109/20
f 39/109/21 35/8/21 45/10/21 49/111/21
f 49/111/22 45/10/22 55/12/22 59/113/22
f 59/113/23 55/12/23 65/14/23 69/115/23
f 69/115/24 65/14/24 75/16/24 79/117/24
f 79/117/67 75/16/67 85/18/67 89/119/67
f 89/119/26 85/18/26 95/20/26 99/121/26
f 99/121/27 95/20/27 105/22/27 109/123/27
f 109/123/28 105/22/28 115/24/28 119/125/28
f 119/125/29 115/24/29 125/26/29 129/127/29
f 129/127/30 125/26/30 135/28/30 139/129/30
f 139/129/31 135/28/31 145/30/31 149/131/31
f 149/131/32 145/30/32 155/32/32 159/133/32
f 159/133/33 155/32/33 165/34/33 169/135/33
