# Blender v2.82 (sub 7) OBJ File: 'trackPieces.blend'
# www.blender.org
mtllib trackpiece6.mtl
o Plane.002_Plane.004
v 1.020337 0.000000 -1.001081
v 2.020337 0.000000 -1.001081
v 2.020337 0.200000 -1.001081
v 1.020337 0.200000 -1.001081
v 1.120337 0.000000 -1.001081
v 1.920337 0.000000 -1.001081
v 2.000337 0.200000 -1.001081
v 1.920337 0.120000 -1.001081
v 1.120337 0.120000 -1.001081
v 1.040337 0.200000 -1.001081
v 1.015522 0.000000 -1.099098
v 2.010706 0.000000 -1.197115
v 2.010706 0.200000 -1.197115
v 1.015522 0.200000 -1.099098
v 1.115040 0.000000 -1.108900
v 1.911188 0.000000 -1.187314
v 1.990803 0.200000 -1.195155
v 1.911188 0.120000 -1.187314
v 1.115040 0.120000 -1.108900
v 1.035426 0.200000 -1.101059
v 1.001122 0.000000 -1.196171
v 1.981908 0.000000 -1.391262
v 1.981908 0.200000 -1.391262
v 1.001122 0.200000 -1.196171
v 1.099201 0.000000 -1.215680
v 1.883829 0.000000 -1.371753
v 1.962292 0.200000 -1.387360
v 1.883829 0.120000 -1.371753
v 1.099201 0.120000 -1.215680
v 1.020738 0.200000 -1.200073
v 0.977277 0.000000 -1.291366
v 1.934218 0.000000 -1.581650
v 1.934218 0.200000 -1.581650
v 0.977277 0.200000 -1.291366
v 1.072971 0.000000 -1.320394
v 1.838524 0.000000 -1.552622
v 1.915079 0.200000 -1.575845
v 1.838524 0.120000 -1.552622
v 1.072971 0.120000 -1.320394
v 0.996416 0.200000 -1.297171
v 0.944217 0.000000 -1.383765
v 1.868096 0.000000 -1.766448
v 1.868096 0.200000 -1.766448
v 0.944217 0.200000 -1.383765
v 1.036605 0.000000 -1.422033
v 1.775708 0.000000 -1.728180
v 1.849619 0.200000 -1.758794
v 1.775708 0.120000 -1.728180
v 1.036605 0.120000 -1.422033
v 0.962694 0.200000 -1.391418
v 0.902258 0.000000 -1.472478
v 1.784180 0.000000 -1.943875
v 1.784180 0.200000 -1.943875
v 0.902258 0.200000 -1.472478
v 0.990451 0.000000 -1.519618
v 1.695987 0.000000 -1.896735
v 1.766541 0.200000 -1.934447
v 1.695987 0.120000 -1.896735
v 0.990451 0.120000 -1.519618
v 0.919897 0.200000 -1.481906
v 0.851807 0.000000 -1.556651
v 1.683276 0.000000 -2.112222
v 1.683276 0.200000 -2.112222
v 0.851807 0.200000 -1.556651
v 0.934954 0.000000 -1.612208
v 1.600129 0.000000 -2.056664
v 1.666647 0.200000 -2.101110
v 1.600129 0.120000 -2.056664
v 0.934954 0.120000 -1.612208
v 0.868436 0.200000 -1.567763
v 0.793348 0.000000 -1.635474
v 1.566358 0.000000 -2.269868
v 1.566358 0.200000 -2.269868
v 0.793348 0.200000 -1.635474
v 0.870649 0.000000 -1.698914
v 1.489057 0.000000 -2.206429
v 1.550898 0.200000 -2.257180
v 1.489057 0.120000 -2.206429
v 0.870649 0.120000 -1.698914
v 0.808808 0.200000 -1.648162
v 0.727444 0.000000 -1.708188
v 1.434551 0.000000 -2.415295
v 1.434551 0.200000 -2.415295
v 0.727444 0.200000 -1.708188
v 0.798155 0.000000 -1.778899
v 1.363840 0.000000 -2.344584
v 1.420408 0.200000 -2.401153
v 1.363840 0.120000 -2.344584
v 0.798155 0.120000 -1.778899
v 0.741586 0.200000 -1.722330
v 0.654730 0.000000 -1.774091
v 1.289124 0.000000 -2.547102
v 1.289124 0.200000 -2.547102
v 0.654730 0.200000 -1.774091
v 0.718170 0.000000 -1.851393
v 1.225684 0.000000 -2.469801
v 1.276436 0.200000 -2.531642
v 1.225684 0.120000 -2.469801
v 0.718170 0.120000 -1.851393
v 0.667418 0.200000 -1.789552
v 0.575907 0.000000 -1.832551
v 1.131477 0.000000 -2.664021
v 1.131477 0.200000 -2.664021
v 0.575907 0.200000 -1.832551
v 0.631464 0.000000 -1.915698
v 1.075920 0.000000 -2.580873
v 1.120366 0.200000 -2.647391
v 1.075920 0.120000 -2.580873
v 0.631464 0.120000 -1.915698
v 0.587019 0.200000 -1.849180
v 0.491734 0.000000 -1.883002
v 0.963130 0.000000 -2.764924
v 0.963130 0.200000 -2.764924
v 0.491734 0.200000 -1.883002
v 0.538873 0.000000 -1.971195
v 0.915991 0.000000 -2.676732
v 0.953703 0.200000 -2.747285
v 0.915991 0.120000 -2.676732
v 0.538873 0.120000 -1.971195
v 0.501162 0.200000 -1.900641
v 0.403021 0.000000 -1.924961
v 0.785704 0.000000 -2.848840
v 0.785704 0.200000 -2.848840
v 0.403021 0.200000 -1.924961
v 0.441289 0.000000 -2.017349
v 0.747436 0.000000 -2.756452
v 0.778050 0.200000 -2.830363
v 0.747436 0.120000 -2.756452
v 0.441289 0.120000 -2.017349
v 0.410674 0.200000 -1.943438
v 0.310622 0.000000 -1.958021
v 0.600906 0.000000 -2.914962
v 0.600906 0.200000 -2.914962
v 0.310622 0.200000 -1.958021
v 0.339650 0.000000 -2.053715
v 0.571878 0.000000 -2.819268
v 0.595101 0.200000 -2.895823
v 0.571878 0.120000 -2.819268
v 0.339650 0.120000 -2.053715
v 0.316427 0.200000 -1.977160
v 0.215427 0.000000 -1.981866
v 0.410518 0.000000 -2.962652
v 0.410518 0.200000 -2.962652
v 0.215427 0.200000 -1.981866
v 0.234936 0.000000 -2.079945
v 0.391009 0.000000 -2.864573
v 0.406616 0.200000 -2.943036
v 0.391009 0.120000 -2.864573
v 0.234936 0.120000 -2.079945
v 0.219329 0.200000 -2.001482
v 0.118354 0.000000 -1.996266
v 0.216371 0.000000 -2.991451
v 0.216371 0.200000 -2.991451
v 0.118354 0.200000 -1.996266
v 0.128156 0.000000 -2.095784
v 0.206570 0.000000 -2.891932
v 0.214411 0.200000 -2.971547
v 0.206570 0.120000 -2.891932
v 0.128156 0.120000 -2.095784
v 0.120315 0.200000 -2.016170
v 0.020337 0.000000 -2.001081
v 0.020337 0.000000 -3.001081
v 0.020337 0.200000 -3.001081
v 0.020337 0.200000 -2.001081
v 0.020337 0.000000 -2.101081
v 0.020337 0.000000 -2.901081
v 0.020337 0.200000 -2.981081
v 0.020337 0.120000 -2.901081
v 0.020337 0.120000 -2.101081
v 0.020337 0.200000 -2.021081
vt 0.480652 0.777533
vt 0.277182 0.927699
vt 0.247388 0.878171
vt 0.463954 0.747794
vt 0.221448 0.828345
vt 0.448933 0.715812
vt 0.199179 0.777483
vt 0.435910 0.682295
vt 0.180518 0.725428
vt 0.425003 0.647552
vt 0.165514 0.672223
vt 0.416303 0.611837
vt 0.154247 0.618013
vt 0.409891 0.575378
vt 0.146803 0.563008
vt 0.405828 0.538390
vt 0.143253 0.507454
vt 0.404160 0.501083
vt 0.143652 0.451617
vt 0.404907 0.463672
vt 0.148034 0.395770
vt 0.408068 0.426373
vt 0.156420 0.340177
vt 0.413613 0.389412
vt 0.168815 0.285078
vt 0.421492 0.353029
vt 0.185227 0.230661
vt 0.431630 0.317485
vt 0.205682 0.177023
vt 0.443938 0.283087
vt 0.230248 0.124095
vt 0.458294 0.250218
vt 0.259290 0.071075
vt 0.474431 0.219424
vt 0.152489 0.999922
vt 0.208348 0.969297
vt 0.177984 0.915804
vt 0.122435 0.945104
vt 0.150967 0.861551
vt 0.093850 0.888396
vt 0.127094 0.806036
vt 0.068194 0.829650
vt 0.106725 0.749121
vt 0.046130 0.769002
vt 0.090141 0.690846
vt 0.028061 0.706668
vt 0.077553 0.631386
vt 0.014256 0.642924
vt 0.069118 0.570985
vt 0.004910 0.578081
vt 0.064947 0.509929
vt 0.000156 0.512476
vt 0.065112 0.448521
vt 0.000077 0.446459
vt 0.069651 0.387072
vt 0.004712 0.380387
vt 0.078561 0.325888
vt 0.014044 0.314619
vt 0.091797 0.265247
vt 0.027992 0.249498
vt 0.109265 0.205371
vt 0.046387 0.185333
vt 0.130814 0.146376
vt 0.068942 0.122355
vt 0.156279 0.088150
vt 0.095190 0.060655
vt 0.185863 0.030422
vt 0.124293 0.000077
vt 0.547272 0.741114
vt 0.600356 0.718684
vt 0.589657 0.692682
vt 0.534526 0.714409
vt 0.579753 0.666279
vt 0.522969 0.686170
vt 0.570956 0.639445
vt 0.512746 0.656821
vt 0.563489 0.612204
vt 0.504072 0.626603
vt 0.557514 0.584602
vt 0.497113 0.595696
vt 0.553150 0.556699
vt 0.491992 0.564255
vt 0.550479 0.528567
vt 0.488790 0.532430
vt 0.549551 0.500279
vt 0.487560 0.500367
vt 0.550390 0.471912
vt 0.488319 0.468209
vt 0.552988 0.443541
vt 0.491057 0.436102
vt 0.557311 0.415234
vt 0.495726 0.404192
vt 0.563288 0.387047
vt 0.502237 0.372626
vt 0.570806 0.359015
vt 0.510452 0.341565
vt 0.579692 0.331144
vt 0.520170 0.311188
vt 0.589683 0.303384
vt 0.531165 0.281706
vt 0.600356 0.275371
vt 0.543266 0.253620
vt 0.542115 0.743974
vt 0.512808 0.760280
vt 0.497855 0.731252
vt 0.528985 0.716896
vt 0.484488 0.701094
vt 0.517158 0.688388
vt 0.472849 0.669669
vt 0.506733 0.658740
vt 0.463061 0.637175
vt 0.497899 0.628191
vt 0.455239 0.603827
vt 0.490815 0.596924
vt 0.449479 0.569825
vt 0.485599 0.565104
vt 0.445853 0.535358
vt 0.482333 0.532886
vt 0.444406 0.500610
vt 0.481068 0.500422
vt 0.445158 0.465765
vt 0.481823 0.467864
vt 0.448100 0.431008
vt 0.484586 0.435362
vt 0.453191 0.396531
vt 0.489310 0.403069
vt 0.460358 0.362535
vt 0.495908 0.371145
vt 0.469486 0.329237
vt 0.504245 0.339758
vt 0.480417 0.296860
vt 0.514125 0.309097
vt 0.492950 0.265601
vt 0.525307 0.279356
vt 0.506947 0.235558
vt 0.537716 0.250914
vt 0.243970 0.947182
vt 0.213627 0.965931
vt 0.183463 0.912884
vt 0.214568 0.896060
vt 0.156597 0.858937
vt 0.188247 0.843996
vt 0.132864 0.803766
vt 0.165258 0.790852
vt 0.112636 0.747227
vt 0.145817 0.736462
vt 0.096182 0.689353
vt 0.130089 0.680850
vt 0.083703 0.630311
vt 0.118219 0.624162
vt 0.075349 0.570342
vt 0.110325 0.566618
vt 0.071229 0.509726
vt 0.106496 0.508478
vt 0.071414 0.448765
vt 0.106797 0.450025
vt 0.075940 0.387766
vt 0.111264 0.391546
vt 0.084808 0.327029
vt 0.119905 0.333320
vt 0.097975 0.266828
vt 0.132704 0.275600
vt 0.115356 0.207381
vt 0.149624 0.218583
vt 0.136816 0.148796
vt 0.170626 0.162372
vt 0.162227 0.090980
vt 0.195721 0.106970
vt 0.191720 0.033760
vt 0.224425 0.052452
vn 0.0000 1.0000 0.0000
vn -0.9988 0.0000 0.0491
vn -0.9892 0.0000 0.1467
vn -0.9700 0.0000 0.2430
vn -0.9415 0.0000 0.3369
vn -0.9040 0.0000 0.4276
vn -0.8577 0.0000 0.5141
vn -0.8032 0.0000 0.5957
vn -0.7410 0.0000 0.6716
vn -0.6716 0.0000 0.7410
vn -0.5957 0.0000 0.8032
vn -0.5141 0.0000 0.8577
vn -0.4276 0.0000 0.9040
vn -0.3369 0.0000 0.9415
vn -0.2430 0.0000 0.9700
vn -0.1467 0.0000 0.9892
vn -0.0491 0.0000 0.9988
vn 0.9988 0.0000 -0.0491
vn 0.9892 0.0000 -0.1467
vn 0.9700 0.0000 -0.2430
vn 0.9415 0.0000 -0.3369
vn 0.9040 0.0000 -0.4276
vn 0.8577 0.0000 -0.5141
vn 0.8032 0.0000 -0.5957
vn 0.7410 0.0000 -0.6716
vn 0.6716 0.0000 -0.7410
vn 0.5957 0.0000 -0.8032
vn 0.5141 0.0000 -0.8577
vn 0.4276 0.0000 -0.9040
vn 0.3369 0.0000 -0.9415
vn 0.2430 0.0000 -0.9700
vn 0.1467 0.0000 -0.9892
vn 0.0491 0.0000 -0.9988
vn 0.7067 0.7067 -0.0347
vn 0.6999 0.7067 -0.1038
vn 0.6863 0.7067 -0.1719
vn 0.6662 0.7067 -0.2384
vn 0.6396 0.7067 -0.3025
vn 0.6069 0.7067 -0.3637
vn 0.5683 0.7067 -0.4215
vn 0.5242 0.7067 -0.4752
vn 0.4752 0.7067 -0.5242
vn 0.4215 0.7067 -0.5683
vn 0.3637 0.7067 -0.6069
vn 0.3025 0.7067 -0.6396
vn 0.2384 0.7067 -0.6662
vn 0.1719 0.7067 -0.6863
vn 0.1038 0.7067 -0.6999
vn 0.0347 0.7067 -0.7067
vn -0.7067 0.7067 0.0347
vn -0.6999 0.7067 0.1038
vn -0.6863 0.7067 0.1719
vn -0.6662 0.7067 0.2384
vn -0.6396 0.7067 0.3025
vn -0.6069 0.7067 0.3637
vn -0.5683 0.7067 0.4215
vn -0.5242 0.7067 0.4752
vn -0.4752 0.7067 0.5242
vn -0.4215 0.7067 0.5683
vn -0.3637 0.7067 0.6069
vn -0.3025 0.7067 0.6396
vn -0.2384 0.7067 0.6662
vn -0.1719 0.7067 0.6863
vn -0.1038 0.7067 0.6999
vn -0.0347 0.7067 0.7067
g Plane.002_Plane.004_corner2
usemtl corner2
s off
f 5/1/1 6/2/1 16/3/1 15/4/1
f 15/4/1 16/3/1 26/5/1 25/6/1
f 25/6/1 26/5/1 36/7/1 35/8/1
f 35/8/1 36/7/1 46/9/1 45/10/1
f 45/10/1 46/9/1 56/11/1 55/12/1
f 55/12/1 56/11/1 66/13/1 65/14/1
f 65/14/1 66/13/1 76/15/1 75/16/1
f 75/16/1 76/15/1 86/17/1 85/18/1
f 85/18/1 86/17/1 96/19/1 95/20/1
f 95/20/1 96/19/1 106/21/1 105/22/1
f 105/22/1 106/21/1 116/23/1 115/24/1
f 115/24/1 116/23/1 126/25/1 125/26/1
f 125/26/1 126/25/1 136/27/1 135/28/1
f 135/28/1 136/27/1 146/29/1 145/30/1
f 145/30/1 146/29/1 156/31/1 155/32/1
f 155/32/1 156/31/1 166/33/1 165/34/1
f 2/35/2 3/36/2 13/37/2 12/38/2
f 12/38/3 13/37/3 23/39/3 22/40/3
f 22/40/4 23/39/4 33/41/4 32/42/4
f 32/42/5 33/41/5 43/43/5 42/44/5
f 42/44/6 43/43/6 53/45/6 52/46/6
f 52/46/7 53/45/7 63/47/7 62/48/7
f 62/48/8 63/47/8 73/49/8 72/50/8
f 72/50/9 73/49/9 83/51/9 82/52/9
f 82/52/10 83/51/10 93/53/10 92/54/10
f 92/54/11 93/53/11 103/55/11 102/56/11
f 102/56/12 103/55/12 113/57/12 112/58/12
f 112/58/13 113/57/13 123/59/13 122/60/13
f 122/60/14 123/59/14 133/61/14 132/62/14
f 132/62/15 133/61/15 143/63/15 142/64/15
f 142/64/16 143/63/16 153/65/16 152/66/16
f 152/66/17 153/65/17 163/67/17 162/68/17
f 4/69/18 1/70/18 11/71/18 14/72/18
f 14/72/19 11/71/19 21/73/19 24/74/19
f 24/74/20 21/73/20 31/75/20 34/76/20
f 34/76/21 31/75/21 41/77/21 44/78/21
f 44/78/22 41/77/22 51/79/22 54/80/22
f 54/80/23 51/79/23 61/81/23 64/82/23
f 64/82/24 61/81/24 71/83/24 74/84/24
f 74/84/25 71/83/25 81/85/25 84/86/25
f 84/86/26 81/85/26 91/87/26 94/88/26
f 94/88/27 91/87/27 101/89/27 104/90/27
f 104/90/28 101/89/28 111/91/28 114/92/28
f 114/92/29 111/91/29 121/93/29 124/94/29
f 124/94/30 121/93/30 131/95/30 134/96/30
f 134/96/31 131/95/31 141/97/31 144/98/31
f 144/98/32 141/97/32 151/99/32 154/100/32
f 154/100/33 151/99/33 161/101/33 164/102/33
f 10/103/34 9/104/34 19/105/34 20/106/34
f 20/106/35 19/105/35 29/107/35 30/108/35
f 30/108/36 29/107/36 39/109/36 40/110/36
f 40/110/37 39/109/37 49/111/37 50/112/37
f 50/112/38 49/111/38 59/113/38 60/114/38
f 60/114/39 59/113/39 69/115/39 70/116/39
f 70/116/40 69/115/40 79/117/40 80/118/40
f 80/118/41 79/117/41 89/119/41 90/120/41
f 90/120/42 89/119/42 99/121/42 100/122/42
f 100/122/43 99/121/43 109/123/43 110/124/43
f 110/124/44 109/123/44 119/125/44 120/126/44
f 120/126/45 119/125/45 129/127/45 130/128/45
f 130/128/46 129/127/46 139/129/46 140/130/46
f 140/130/47 139/129/47 149/131/47 150/132/47
f 150/132/48 149/131/48 159/133/48 160/134/48
f 160/134/49 159/133/49 169/135/49 170/136/49
f 8/137/50 7/138/50 17/139/50 18/140/50
f 18/140/51 17/139/51 27/141/51 28/142/51
f 28/142/52 27/141/52 37/143/52 38/144/52
f 38/144/53 37/143/53 47/145/53 48/146/53
f 48/146/54 47/145/54 57/147/54 58/148/54
f 58/148/55 57/147/55 67/149/55 68/150/55
f 68/150/56 67/149/56 77/151/56 78/152/56
f 78/152/57 77/151/57 87/153/57 88/154/57
f 88/154/58 87/153/58 97/155/58 98/156/58
f 98/156/59 97/155/59 107/157/59 108/158/59
f 108/158/60 107/157/60 117/159/60 118/160/60
f 118/160/61 117/159/61 127/161/61 128/162/61
f 128/162/62 127/161/62 137/163/62 138/164/62
f 138/164/63 137/163/63 147/165/63 148/166/63
f 148/166/64 147/165/64 157/167/64 158/168/64
f 158/168/65 157/167/65 167/169/65 168/170/65
f 7/138/1 3/36/1 13/37/1 17/139/1
f 17/139/1 13/37/1 23/39/1 27/141/1
f 27/141/1 23/39/1 33/41/1 37/143/1
f 37/143/1 33/41/1 43/43/1 47/145/1
f 47/145/1 43/43/1 53/45/1 57/147/1
f 57/147/1 53/45/1 63/47/1 67/149/1
f 67/149/1 63/47/1 73/49/1 77/151/1
f 77/151/1 73/49/1 83/51/1 87/153/1
f 87/153/1 83/51/1 93/53/1 97/155/1
f 97/155/1 93/53/1 103/55/1 107/157/1
f 107/157/1 103/55/1 113/57/1 117/159/1
f 117/159/1 113/57/1 123/59/1 127/161/1
f 127/161/1 123/59/1 133/61/1 137/163/1
f 137/163/1 133/61/1 143/63/1 147/165/1
f 147/165/1 143/63/1 153/65/1 157/167/1
f 157/167/1 153/65/1 163/67/1 167/169/1
f 6/2/2 8/137/2 18/140/2 16/3/2
f 16/3/3 18/140/3 28/142/3 26/5/3
f 26/5/4 28/142/4 38/144/4 36/7/4
f 36/7/5 38/144/5 48/146/5 46/9/5
f 46/9/6 48/146/6 58/148/6 56/11/6
f 56/11/7 58/148/7 68/150/7 66/13/7
f 66/13/8 68/150/8 78/152/8 76/15/8
f 76/15/9 78/152/9 88/154/9 86/17/9
f 86/17/10 88/154/10 98/156/10 96/19/10
f 96/19/11 98/156/11 108/158/11 106/21/11
f 106/21/12 108/158/12 118/160/12 116/23/12
f 116/23/13 118/160/13 128/162/13 126/25/13
f 126/25/14 128/162/14 138/164/14 136/27/14
f 136/27/15 138/164/15 148/166/15 146/29/15
f 146/29/16 148/166/16 158/168/16 156/31/16
f 156/31/17 158/168/17 168/170/17 166/33/17
f 4/69/1 10/103/1 20/106/1 14/72/1
f 14/72/1 20/106/1 30/108/1 24/74/1
f 24/74/1 30/108/1 40/110/1 34/76/1
f 34/76/1 40/110/1 50/112/1 44/78/1
f 44/78/1 50/112/1 60/114/1 54/80/1
f 54/80/1 60/114/1 70/116/1 64/82/1
f 64/82/1 70/116/1 80/118/1 74/84/1
f 74/84/1 80/118/1 90/120/1 84/86/1
f 84/86/1 90/120/1 100/122/1 94/88/1
f 94/88/1 100/122/1 110/124/1 104/90/1
f 104/90/1 110/124/1 120/126/1 114/92/1
f 114/92/1 120/126/1 130/128/1 124/94/1
f 124/94/1 130/128/1 140/130/1 134/96/1
f 134/96/1 140/130/1 150/132/1 144/98/1
f 144/98/1 150/132/1 160/134/1 154/100/1
f 154/100/1 160/134/1 170/136/1 164/102/1
f 9/104/18 5/1/18 15/4/18 19/105/18
f 19/105/19 15/4/19 25/6/19 29/107/19
f 29/107/20 25/6/20 35/8/20 39/109/20
f 39/109/21 35/8/21 45/10/21 49/111/21
f 49/111/22 45/10/22 55/12/22 59/113/22
f 59/113/23 55/12/23 65/14/23 69/115/23
f 69/115/24 65/14/24 75/16/24 79/117/24
f 79/117/25 75/16/25 85/18/25 89/119/25
f 89/119/26 85/18/26 95/20/26 99/121/26
f 99/121/27 95/20/27 105/22/27 109/123/27
f 109/123/28 105/22/28 115/24/28 119/125/28
f 119/125/29 115/24/29 125/26/29 129/127/29
f 129/127/30 125/26/30 135/28/30 139/129/30
f 139/129/31 135/28/31 145/30/31 149/131/31
f 149/131/32 145/30/32 155/32/32 159/133/32
f 159/133/33 155/32/33 165/34/33 169/135/33
